<svg width="32" height="32" viewBox="0 0 32 32" fill="none" xmlns="http://www.w3.org/2000/svg">
<path d="M12.9905 24.4006C13.1257 24.429 13.2745 24.4432 13.4368 24.4432C13.599 24.4432 13.7478 24.4432 13.8831 24.4432C15.0191 24.4432 15.9658 24.2161 16.7232 23.7618C17.5076 23.3076 18.1297 22.683 18.5895 21.888C19.0764 21.0931 19.4145 20.1562 19.6038 19.0773C19.8202 17.97 19.9284 16.7634 19.9284 15.4574C19.9284 14.3218 19.8473 13.2145 19.685 12.1356C19.5227 11.0568 19.2387 10.1057 18.8329 9.28233C18.4272 8.45899 17.8727 7.80599 17.1695 7.32334C16.4662 6.8123 15.5601 6.55678 14.4511 6.55678C14.2347 6.55678 13.9912 6.57098 13.7208 6.59937C13.4503 6.59937 13.2068 6.62776 12.9905 6.68454V24.4006ZM25 15.4574C25 17.8991 24.7025 19.9858 24.1074 21.7177C23.5394 23.4211 22.7414 24.8123 21.7136 25.8912C20.6858 26.97 19.4551 27.765 18.0215 28.276C16.615 28.7587 15.0597 29 13.3556 29C12.463 29 11.5839 28.9432 10.7184 28.8297C9.87987 28.7445 8.97375 28.5883 8 28.3612V2.6388C9.13604 2.38328 10.2045 2.21294 11.2053 2.12776C12.206 2.04259 13.1392 2 14.0048 2C15.6547 2 17.1559 2.25552 18.5084 2.76656C19.8878 3.2776 21.0509 4.08675 21.9976 5.19401C22.9443 6.27287 23.6746 7.66404 24.1885 9.36751C24.7295 11.0426 25 13.0726 25 15.4574Z" fill="#212529"/>
</svg>
